<svg xmlns="http://www.w3.org/2000/svg" xmlns:xlink="http://www.w3.org/1999/xlink" viewBox="0 0 512 512" width="512" height="512" preserveAspectRatio="xMidYMid meet" style="width: 100%; height: 100%; transform: translate3d(0px, 0px, 0px); content-visibility: visible;"><defs><clipPath id="__lottie_element_2"><rect width="512" height="512" x="0" y="0"/></clipPath><linearGradient id="__lottie_element_7" spreadMethod="pad" gradientUnits="userSpaceOnUse" x1="-1.0399999618530273" y1="-176.5" x2="0.9599999785423279" y2="188.88900756835938"><stop offset="0%" stop-color="rgb(253,207,24)"/><stop offset="47%" stop-color="rgb(245,171,12)"/><stop offset="93%" stop-color="rgb(237,135,0)"/></linearGradient><radialGradient id="__lottie_element_8" spreadMethod="pad" gradientUnits="userSpaceOnUse" cx="-6.039999961853027" cy="-160.1230010986328" r="342.6724710471032" fx="-6.039999961853027" fy="-160.1230010986328"><stop offset="7%" stop-color="rgb(254,254,226)"/><stop offset="28%" stop-color="rgb(253,238,140)"/><stop offset="49%" stop-color="rgb(252,222,54)"/><stop offset="82%" stop-color="rgb(245,184,32)"/><stop offset="100%" stop-color="rgb(238,145,10)"/></radialGradient><linearGradient id="__lottie_element_28" spreadMethod="pad" gradientUnits="userSpaceOnUse" x1="-15.069000244140625" y1="-306.7640075683594" x2="-1.7960000038146973" y2="65.88999938964844"><stop offset="0%" stop-color="rgb(253,207,24)"/><stop offset="47%" stop-color="rgb(245,171,12)"/><stop offset="93%" stop-color="rgb(237,135,0)"/></linearGradient><linearGradient id="__lottie_element_35" spreadMethod="pad" gradientUnits="userSpaceOnUse" x1="149.0570068359375" y1="-256.42999267578125" x2="44.808998107910156" y2="86.76100158691406"><stop offset="0%" stop-color="rgb(253,207,24)"/><stop offset="47%" stop-color="rgb(245,171,12)"/><stop offset="93%" stop-color="rgb(237,135,0)"/></linearGradient></defs><g clip-path="url(#__lottie_element_2)"><g transform="matrix(1.0299999713897705,0,0,1.0299999713897705,40.753692626953125,39.914215087890625)" opacity="1" style="display: block;"><g opacity="1" transform="matrix(0.970004677772522,0,0,0.9699984192848206,-0.2252655029296875,-0.30279541015625)"><g opacity="1" transform="matrix(1,0,0,1,215.6439971923828,215.64500427246094)"><path fill="url(#__lottie_element_7)" fill-opacity="1" d=" M194.9969940185547,0 C194.9969940185547,107.69400024414062 107.69300079345703,194.9969940185547 0,194.9969940185547 C-107.69400024414062,194.9969940185547 -194.9969940185547,107.69400024414062 -194.9969940185547,0 C-194.9969940185547,-107.69400024414062 -107.69400024414062,-194.9969940185547 0,-194.9969940185547 C107.69300079345703,-194.9969940185547 194.9969940185547,-107.69400024414062 194.9969940185547,0z"/></g><g opacity="1" transform="matrix(1,0,0,1,215.70199584960938,213.7169952392578)"><path fill="url(#__lottie_element_8)" fill-opacity="1" d=" M173.80799865722656,2.6630001068115234 C172.3040008544922,100.77200317382812 93.26899719238281,179.11199951171875 -2.7230000495910645,177.63999938964844 C-98.71399688720703,176.16799926757812 -175.31199645996094,95.44499969482422 -173.80799865722656,-2.6640000343322754 C-172.3040008544922,-100.77300262451172 -93.26899719238281,-179.11199951171875 2.7230000495910645,-177.64100646972656 C98.71399688720703,-176.16900634765625 175.31199645996094,-95.44499969482422 173.80799865722656,2.6630001068115234z"/></g><g opacity="1" transform="matrix(1,0,0,1,215.6439971923828,215.64500427246094)"><path stroke-linecap="butt" stroke-linejoin="miter" fill-opacity="0" stroke-miterlimit="10" stroke="rgb(231,105,0)" stroke-opacity="1" stroke-width="8.259" d=" M194.9969940185547,0 C194.9969940185547,107.69400024414062 107.69300079345703,194.9969940185547 0,194.9969940185547 C-107.69400024414062,194.9969940185547 -194.9969940185547,107.69400024414062 -194.9969940185547,0 C-194.9969940185547,-107.69400024414062 -107.69400024414062,-194.9969940185547 0,-194.9969940185547 C107.69300079345703,-194.9969940185547 194.9969940185547,-107.69400024414062 194.9969940185547,0z"/></g></g></g><g transform="matrix(1.0299999713897705,0,0,1.0299999713897705,216.88265991210938,247.78079223632812)" opacity="1" style="display: block;"><g opacity="0.7000000000000001" transform="matrix(1,0,0,1,37.90599822998047,13.793000221252441)"><path fill="rgb(234,172,31)" fill-opacity="1" d=" M32.91699981689453,-11.086000442504883 C30.459999084472656,-13.543000221252441 21.479000091552734,-12.272000312805176 0.07199999690055847,-12.272000312805176 C-21.334999084472656,-12.272000312805176 -30.41900062561035,-13.543000221252441 -32.875999450683594,-11.086000442504883 C-37.65700149536133,-6.304999828338623 -27.761999130249023,13.543000221252441 0.07199999690055847,13.543000221252441 C27.479999542236328,13.543000221252441 37.65700149536133,-6.3460001945495605 32.91699981689453,-11.086000442504883z"/></g><g opacity="1" transform="matrix(1,0,0,1,37.86399841308594,16.327999114990234)"><path fill="rgb(254,221,120)" fill-opacity="1" d=" M31.958999633789062,-9.621000289916992 C29.663000106811523,-12.229999542236328 21.520999908447266,-7.807000160217285 0.11400000005960464,-7.807000160217285 C-21.292999267578125,-7.807000160217285 -29.483999252319336,-12.182000160217285 -31.83300018310547,-9.621000289916992 C-37.145999908447266,-3.8269999027252197 -21.927000045776367,12.229999542236328 0.11400000005960464,12.229999542236328 C22.152999877929688,12.229999542236328 37.145999908447266,-3.7260000705718994 31.958999633789062,-9.621000289916992z"/></g><g opacity="1" transform="matrix(1,0,0,1,37.926998138427734,13.623000144958496)"><path fill="rgb(151,72,0)" fill-opacity="1" d=" M31.895999908447266,-6.915999889373779 C30.176000595092773,-9.9350004196167 21.45800018310547,-8.10200023651123 0.050999999046325684,-8.10200023651123 C-21.356000900268555,-8.10200023651123 -30.176000595092773,-9.9350004196167 -31.895999908447266,-6.915999889373779 C-34.14400100708008,-2.9700000286102295 -21.989999771118164,9.9350004196167 0.050999999046325684,9.9350004196167 C22.09000015258789,9.9350004196167 34.14400100708008,-2.9700000286102295 31.895999908447266,-6.915999889373779z"/></g><g opacity="1" transform="matrix(1,0,0,1,37.926998138427734,6.639999866485596)"><path fill="rgb(99,41,0)" fill-opacity="1" d=" M31.743999481201172,2.9149999618530273 C29.71500015258789,0.20499999821186066 20.90399932861328,2.9549999237060547 0.054999999701976776,2.9549999237060547 C-20.805999755859375,2.9549999237060547 -29.71500015258789,0.20499999821186066 -31.7450008392334,2.9149999618530273 C-32.23500061035156,1.7649999856948853 -32.29499816894531,0.7749999761581421 -31.895999908447266,0.06499999761581421 C-30.174999237060547,-2.9549999237060547 -21.356000900268555,-1.1150000095367432 0.054999999701976776,-1.1150000095367432 C21.454999923706055,-1.1150000095367432 30.174999237060547,-2.9549999237060547 31.893999099731445,0.06499999761581421 C32.29499816894531,0.7749999761581421 32.24399948120117,1.7649999856948853 31.743999481201172,2.9149999618530273z"/></g></g><g transform="matrix(1.0299999713897705,0,0,1.0299999713897705,213.24676513671875,212.4746856689453)" opacity="0.3459999999996626" style="display: none;"><g opacity="0.7000000000000001" transform="matrix(1,0,0,1,41.63999938964844,52.53499984741211)"><path fill="rgb(234,172,31)" fill-opacity="1" d=" M-0.22699999809265137,-7.406000137329102 C-0.22699999809265137,-7.406000137329102 -0.22699999809265137,-7.406000137329102 -0.22699999809265137,-7.406000137329102 C-12.517000198364258,-7.406000137329102 -33.46200180053711,-11.826000213623047 -33.46200180053711,-17.229999542236328 C-33.46200180053711,-17.229999542236328 -33.34600067138672,-18.867000579833984 -33.34600067138672,-18.867000579833984 C-33.34600067138672,-24.270999908447266 -18.288999557495117,-18.264999389648438 -0.008999999612569809,-18.264999389648438 C18.270999908447266,-18.264999389648438 33.125,-24.270999908447266 33.125,-18.867000579833984 C33.125,-18.867000579833984 33.00899887084961,-17.229999542236328 33.00899887084961,-17.229999542236328 C33.00899887084961,-11.826000213623047 12.062999725341797,-7.406000137329102 -0.22699999809265137,-7.406000137329102z"/></g><g opacity="1" transform="matrix(1,0,0,1,41.63999938964844,65.62100219726562)"><path fill="rgb(254,221,120)" fill-opacity="1" d=" M-0.21199999749660492,-16.139999389648438 C-0.21199999749660492,-16.139999389648438 -0.21199999749660492,-16.139999389648438 -0.21199999749660492,-16.139999389648438 C-12.501999855041504,-16.139999389648438 -33.46200180053711,-21.805999755859375 -33.46200180053711,-27.209999084472656 C-33.46200180053711,-27.209999084472656 -33.34600067138672,-28.847000122070312 -33.34600067138672,-28.847000122070312 C-33.34600067138672,-34.250999450683594 -18.343000411987305,-27.128000259399414 -0.06300000101327896,-27.128000259399414 C18.216999053955078,-27.128000259399414 33.125,-34.250999450683594 33.125,-28.847000122070312 C33.125,-28.847000122070312 33.00899887084961,-27.209999084472656 33.00899887084961,-27.209999084472656 C33.00899887084961,-21.805999755859375 12.07800006866455,-16.139999389648438 -0.21199999749660492,-16.139999389648438z"/></g><g opacity="1" transform="matrix(1,0,0,1,41.63999938964844,58.53499984741211)"><path fill="rgb(151,72,0)" fill-opacity="1" d=" M-0.22699999809265137,-11.980999946594238 C-0.22699999809265137,-11.980999946594238 -0.22699999809265137,-11.980999946594238 -0.22699999809265137,-11.980999946594238 C-12.517000198364258,-11.980999946594238 -33.46200180053711,-16.402000427246094 -33.46200180053711,-21.805999755859375 C-33.46200180053711,-21.805999755859375 -33.34600067138672,-23.44300079345703 -33.34600067138672,-23.44300079345703 C-33.34600067138672,-28.847000122070312 -18.343000411987305,-21.724000930786133 -0.06300000101327896,-21.724000930786133 C18.216999053955078,-21.724000930786133 33.125,-28.847000122070312 33.125,-23.44300079345703 C33.125,-23.44300079345703 33.00899887084961,-21.805999755859375 33.00899887084961,-21.805999755859375 C33.00899887084961,-16.402000427246094 12.062999725341797,-11.980999946594238 -0.22699999809265137,-11.980999946594238z"/></g><g opacity="1" transform="matrix(1,0,0,1,41.643001556396484,47.76599884033203)"><path fill="rgb(99,41,0)" fill-opacity="1" d=" M33.125,-12.67300033569336 C33.125,-12.67300033569336 33.007999420166016,-11.03600025177002 33.007999420166016,-11.03600025177002 C33.007999420166016,-9.331999778747559 31.545000076293945,-8.154999732971191 28.92799949645996,-6.754000186920166 C29.055999755859375,-7.078999996185303 29.097000122070312,-6.98199987411499 29.097000122070312,-7.316999912261963 C29.097000122070312,-7.316999912261963 29.214000701904297,-7.892000198364258 29.214000701904297,-7.892000198364258 C29.214000701904297,-10.277999877929688 32.715999603271484,-9.88599967956543 27.399999618530273,-11.458000183105469 C22.083999633789062,-13.029999732971191 7.953000068664551,-9.119000434875488 -0.11699999868869781,-9.119000434875488 C-16.249000549316406,-9.119000434875488 -34.77799987792969,-15.932000160217285 -29.444000244140625,-7.892000198364258 C-29.444000244140625,-7.892000198364258 -29.559999465942383,-7.316999912261963 -29.559999465942383,-7.316999912261963 C-29.559999465942383,-6.98199987411499 -29.496000289916992,-7.081999778747559 -29.368000030517578,-6.758999824523926 C-31.97800064086914,-8.15999984741211 -33.4630012512207,-9.333999633789062 -33.4630012512207,-11.03600025177002 C-33.4630012512207,-11.03600025177002 -33.34600067138672,-12.67300033569336 -33.34600067138672,-12.67300033569336 C-33.34600067138672,-18.077999114990234 -18.347000122070312,-10.954000473022461 -0.06300000101327896,-10.954000473022461 C9.074999809265137,-10.954000473022461 20.415000915527344,-13.246000289916992 27.700000762939453,-14.513999938964844 C30.614999771118164,-15.020999908447266 33.14699935913086,-14.78499984741211 33.125,-12.67300033569336z"/></g><g opacity="0" transform="matrix(1,0,0,1,-214.74998474121094,-275.5)"><g opacity="1" transform="matrix(1,0,0,1,256.1319885253906,325.92401123046875)"><path fill="rgb(223,51,93)" fill-opacity="1" d=" M-26.731000900268555,-3.1510000228881836 C-34.012001037597656,-2.7149999141693115 -38.54399871826172,-2.1040000915527344 -38.54399871826172,-1.4259999990463257 C-38.54399871826172,-1.4249999523162842 -38.54399871826172,-1.4220000505447388 -38.54399871826172,-1.4210000038146973 C-38.5369987487793,-1.1720000505447388 -35.117000579833984,-0.9580000042915344 -30.48200035095215,-0.9079999923706055 C-22.209999084472656,-0.8199999928474426 -8.121000289916992,-0.7609999775886536 0.019999999552965164,-0.7609999775886536 C8.16100025177002,-0.7609999775886536 22.238000869750977,-0.8190000057220459 30.510000228881836,-0.9079999923706055 C35.14500045776367,-0.9580000042915344 38.56399917602539,-1.1720000505447388 38.57099914550781,-1.4210000038146973 C38.57099914550781,-1.4220000505447388 38.57099914550781,-1.4249999523162842 38.57099914550781,-1.4259999990463257 C38.57099914550781,-2.1040000915527344 34.03900146484375,-2.7149999141693115 26.757999420166016,-3.1510000228881836 C18.62299919128418,-3.177000045776367 6.546000003814697,-3.191999912261963 0.01899999938905239,-3.191999912261963 C-6.507999897003174,-3.191999912261963 -18.597000122070312,-3.177000045776367 -26.731000900268555,-3.1510000228881836z"/></g><g opacity="1" transform="matrix(1,0,0,1,256.1319885253906,323.5480041503906)"><path fill="rgb(250,104,169)" fill-opacity="1" d=" M-22.825000762939453,-0.7509999871253967 C-29.04199981689453,-0.3790000081062317 -32.91299819946289,0.14300000667572021 -32.91299819946289,0.722000002861023 C-32.91299819946289,0.7229999899864197 -32.91299819946289,0.7250000238418579 -32.91299819946289,0.7260000109672546 C-32.90700149536133,0.9390000104904175 -29.986000061035156,1.121999979019165 -26.027999877929688,1.1640000343322754 C-18.964000701904297,1.2400000095367432 -6.932000160217285,1.2890000343322754 0.019999999552965164,1.2890000343322754 C6.9720001220703125,1.2890000343322754 18.993000030517578,1.2400000095367432 26.055999755859375,1.1640000343322754 C30.013999938964844,1.121999979019165 32.933998107910156,0.9390000104904175 32.939998626708984,0.7260000109672546 C32.939998626708984,0.7250000238418579 32.939998626708984,0.7229999899864197 32.939998626708984,0.722000002861023 C32.939998626708984,0.14300000667572021 29.069000244140625,-0.3790000081062317 22.851999282836914,-0.7509999871253967 C15.904999732971191,-0.7730000019073486 5.5929999351501465,-0.7860000133514404 0.01899999938905239,-0.7860000133514404 C-5.554999828338623,-0.7860000133514404 -15.878999710083008,-0.7730000019073486 -22.825000762939453,-0.7509999871253967z"/></g><g opacity="0.5" transform="matrix(1,0,0,1,256.1319885253906,318.01300048828125)"><path fill="rgb(212,41,97)" fill-opacity="1" d=" M-37.75400161743164,6.001999855041504 C-28.198999404907227,6.09499979019165 -10.484999656677246,6.164999961853027 0.01899999938905239,6.164999961853027 C10.52299976348877,6.164999961853027 28.226999282836914,6.093999862670898 37.78099822998047,6.001999855041504 C36.472999572753906,5.605999946594238 33.58700180053711,5.245999813079834 29.552000045776367,4.947000026702881 C26.222000122070312,4.864999771118164 22.798999786376953,4.795000076293945 19.326000213623047,4.739999771118164 C13.276000022888184,4.7270002365112305 4.614999771118164,4.718999862670898 0.01899999938905239,4.718999862670898 C-4.576000213623047,4.718999862670898 -13.25,4.7270002365112305 -19.298999786376953,4.739999771118164 C-22.77199935913086,4.795000076293945 -26.19499969482422,4.864999771118164 -29.524999618530273,4.947000026702881 C-33.560001373291016,5.245999813079834 -36.44599914550781,5.605999946594238 -37.75400161743164,6.001999855041504z"/></g><g opacity="0.5" transform="matrix(1,0,0,1,256.1340026855469,330.3689880371094)"><path fill="rgb(223,51,93)" fill-opacity="1" d=" M1.5640000104904175,-5.206999778747559 C1.75600004196167,-6.0289998054504395 1.0870000123977661,-7.083000183105469 0.01899999938905239,-7.083000183105469 C-1.0490000247955322,-7.083000183105469 -1.718999981880188,-6.0289998054504395 -1.5260000228881836,-5.206999778747559 C-1.0119999647140503,-5.206999778747559 -0.5070000290870667,-5.205999851226807 0.017999999225139618,-5.205999851226807 C0.5440000295639038,-5.205999851226807 1.0490000247955322,-5.206999778747559 1.5640000104904175,-5.206999778747559z"/></g></g><g opacity="0" transform="matrix(1,0,0,1,-214.49998474121094,-267)"><g opacity="1" transform="matrix(1,0,0,1,256.1289978027344,334.0140075683594)"><path fill="rgb(244,244,244)" fill-opacity="1" d=" M34.266998291015625,-17.545000076293945 C34.266998291015625,-17.56399917602539 34.262001037597656,-17.58300018310547 34.250999450683594,-17.604000091552734 C34.06800079345703,-17.95400047302246 32.41299819946289,-18.183000564575195 30.791000366210938,-18.101999282836914 C23.64699935913086,-17.7450008392334 13.20300006866455,-13.751999855041504 -0.4099999964237213,-13.751999855041504 C-14.027000427246094,-13.751999855041504 -24.368000030517578,-17.7450008392334 -31.51300048828125,-18.10300064086914 C-33.13100051879883,-18.18400001525879 -34.79800033569336,-17.957000732421875 -34.97100067138672,-17.607999801635742 C-34.97999954223633,-17.59000015258789 -34.98500061035156,-17.57200050354004 -34.98500061035156,-17.555999755859375 C-34.55500030517578,-17.007999420166016 -22.981000900268555,-10.494999885559082 -0.41600000858306885,-10.494999885559082 C22.14900016784668,-10.494999885559082 33.840999603271484,-17.009000778198242 34.266998291015625,-17.545000076293945z"/></g><g opacity="1" transform="matrix(1,0,0,1,215.71600341796875,330.364990234375)"><path fill="rgb(201,214,215)" fill-opacity="1" d=" M5.441999912261963,-13.958999633789062 C5.433000087738037,-13.940999984741211 5.427999973297119,-13.92300033569336 5.427999973297119,-13.906999588012695 C5.631999969482422,-13.647000312805176 8.369000434875488,-13.10200023651123 13.60099983215332,-12.602999687194824 C10.734000205993652,-12.878000259399414 8.866000175476074,-13.486000061035156 9.815999984741211,-13.824000358581543 C10.819000244140625,-14.180999755859375 13.60099983215332,-14.154000282287598 19.618000030517578,-14.048999786376953 C19.618000030517578,-14.048999786376953 19.608999252319336,-14.048999786376953 19.608999252319336,-14.048999786376953 C15.472000122070312,-14.161999702453613 11.897000312805176,-14.303000450134277 8.901000022888184,-14.45300006866455 C7.2829999923706055,-14.534000396728516 5.614999771118164,-14.307999610900879 5.441999912261963,-13.958999633789062z"/></g><g opacity="1" transform="matrix(1,0,0,1,296.54901123046875,330.364990234375)"><path fill="rgb(201,214,215)" fill-opacity="1" d=" M-6.1620001792907715,-13.958999633789062 C-6.1529998779296875,-13.940999984741211 -6.1479997634887695,-13.92300033569336 -6.1479997634887695,-13.906999588012695 C-6.3520002365112305,-13.647000312805176 -9.08899974822998,-13.10200023651123 -14.321000099182129,-12.602999687194824 C-11.454000473022461,-12.878000259399414 -9.586000442504883,-13.486000061035156 -10.53600025177002,-13.824000358581543 C-11.538999557495117,-14.180999755859375 -14.321999549865723,-14.154000282287598 -20.339000701904297,-14.048999786376953 C-20.339000701904297,-14.048999786376953 -20.32900047302246,-14.048999786376953 -20.32900047302246,-14.048999786376953 C-16.191999435424805,-14.161999702453613 -12.616999626159668,-14.303000450134277 -9.621000289916992,-14.45300006866455 C-8.003000259399414,-14.534000396728516 -6.335000038146973,-14.307999610900879 -6.1620001792907715,-13.958999633789062z"/></g></g><g opacity="0" transform="matrix(1,0,0,1,0,0)"><g opacity="1" transform="matrix(1,0,0,1,41.64799880981445,32.20199966430664)"><path fill="rgb(244,244,244)" fill-opacity="1" d=" M-0.03400000184774399,7.710000038146973 C-6.171999931335449,7.710000038146973 -11.781000137329102,2.743000030517578 -15.45199966430664,2.6619999408721924 C-18.16699981689453,2.6019999980926514 -19.906999588012695,2.2990000247955322 -19.200000762939453,1.9919999837875366 C-16.969999313354492,1.024999976158142 -9.20300006866455,5.263000011444092 -0.03400000184774399,5.263000011444092 C9.050000190734863,5.263000011444092 16.756000518798828,1.0119999647140503 19.066999435424805,1.9639999866485596 C19.84600067138672,2.2850000858306885 18.197999954223633,2.5980000495910645 15.347000122070312,2.6600000858306885 C11.597999572753906,2.742000102996826 5.900000095367432,7.710000038146973 -0.03400000184774399,7.710000038146973z"/></g><g opacity="1" transform="matrix(1,0,0,1,58.981998443603516,31.72100067138672)"><path fill="rgb(200,213,214)" fill-opacity="1" d=" M-1.9850000143051147,3.140000104904175 C-3.4560000896453857,3.171999931335449 -5.2270002365112305,3.203000068664551 -7.191999912261963,3.2279999256134033 C-6.020999908447266,3.180999994277954 -3.5369999408721924,2.9830000400543213 -3.515000104904175,2.5169999599456787 C-3.496999979019165,2.124000072479248 -4.9730000495910645,5.914999961853027 -16.850000381469727,5.744999885559082 C-12.508999824523926,5.75600004196167 -8.505999565124512,1.0199999809265137 -5.28000020980835,1.2890000343322754 C-1.9270000457763672,1.569000005722046 0.5720000267028809,1.968999981880188 1.7319999933242798,2.444000005722046 C2.5139999389648438,2.765000104904175 0.8619999885559082,3.0769999027252197 -1.9850000143051147,3.140000104904175z"/></g><g opacity="1" transform="matrix(1,0,0,1,24.74799919128418,31.79599952697754)"><path fill="rgb(200,213,214)" fill-opacity="1" d=" M7.438000202178955,8.060999870300293 C5.131999969482422,8.034000396728516 3.0969998836517334,3.1029999256134033 1.4490000009536743,3.066999912261963 C-1.2690000534057617,3.006999969482422 -3.006999969482422,2.7039999961853027 -2.2980000972747803,2.3970000743865967 C-0.0689999982714653,1.430999994277954 7.697000026702881,5.669000148773193 16.867000579833984,5.669000148773193 C4.921999931335449,5.835000038146973 2.9730000495910645,2.049999952316284 2.990999937057495,2.443000078201294 C3.0160000324249268,2.986999988555908 7.438000202178955,8.060999870300293 7.438000202178955,8.060999870300293z"/></g></g></g><g transform="matrix(-1.022101879119873,0.12730973958969116,0.1489523947238922,1.1958590745925903,364.8393859863281,112.57489776611328)" opacity="1" style="display: block;"><g opacity="1" transform="matrix(1,0,0,1,173.5070037841797,32.584999084472656)"><path fill="rgb(255,222,156)" fill-opacity="1" d=" M22.15399932861328,0.06499999761581421 C22.15399932861328,17.92300033569336 12.154999732971191,8.472999572753906 -0.9729999899864197,8.472999572753906 C-14.10099983215332,8.472999572753906 -21.298999786376953,17.648000717163086 -21.298999786376953,-0.20999999344348907 C-21.298999786376953,-18.06800079345703 -15.373000144958496,-32.165000915527344 0,-32.165000915527344 C15.373000144958496,-32.165000915527344 22.15399932861328,-17.792999267578125 22.15399932861328,0.06499999761581421z"/></g><g opacity="1" transform="matrix(1,0,0,1,173.5070037841797,29.256000518798828)"><path fill="rgb(234,172,31)" fill-opacity="1" d=" M22.15399932861328,0.06499999761581421 C22.15399932861328,16.084999084472656 12.154999732971191,5.144000053405762 -0.9729999899864197,5.144000053405762 C-14.10099983215332,5.144000053405762 -20.944000244140625,15.664999961853027 -20.944000244140625,-0.35499998927116394 C-20.944000244140625,-16.375 -15.373000144958496,-29.176000595092773 0,-29.176000595092773 C15.373000144958496,-29.176000595092773 22.15399932861328,-15.954999923706055 22.15399932861328,0.06499999761581421z"/></g><g opacity="1" transform="matrix(1,0,0,1,173.5070037841797,32.44200134277344)"><path fill="rgb(151,72,0)" fill-opacity="1" d=" M21.36400032043457,0.052000001072883606 C19.36199951171875,15.015999794006348 11.371999740600586,8.793000221252441 -0.6990000009536743,8.793000221252441 C-12.770999908447266,8.793000221252441 -18.929000854492188,14.227999687194824 -20.469999313354492,-0.7900000214576721 C-22.281999588012695,-18.447999954223633 -11.840999603271484,-27.465999603271484 0.23100000619888306,-27.465999603271484 C12.302000045776367,-27.465999603271484 23.691999435424805,-17.35099983215332 21.36400032043457,0.052000001072883606z"/></g><g opacity="1" transform="matrix(1,0,0,1,173.5070037841797,20.547000885009766)"><path fill="rgb(99,41,0)" fill-opacity="1" d=" M21.860000610351562,11.899999618530273 C21.753999710083008,13.095000267028809 20.902999877929688,14.135000228881836 20.773000717163086,15.295000076293945 C20.249000549316406,1.8380000591278076 13.479999542236328,-8.972999572753906 0.6790000200271606,-9.72599983215332 C-10.446999549865723,-10.380000114440918 -21.027999877929688,-2.4600000381469727 -20.243999481201172,14.699999809265137 C-20.374000549316406,13.539999961853027 -20.836999893188477,12.302000045776367 -20.94300079345703,11.107000350952148 C-22.535999298095703,-6.793000221252441 -11.83899974822998,-15.571999549865723 0.23100000619888306,-15.571999549865723 C12.300999641418457,-15.571999549865723 23.415000915527344,-5.639999866485596 21.860000610351562,11.899999618530273z"/></g></g><g transform="matrix(1.022101879119873,0.12730929255485535,-0.14895187318325043,1.1958590745925903,147.16058349609375,112.5749282836914)" opacity="1" style="display: block;"><g opacity="1" transform="matrix(1,0,0,1,173.5070037841797,32.584999084472656)"><path fill="rgb(255,222,156)" fill-opacity="1" d=" M22.15399932861328,0.06499999761581421 C22.15399932861328,17.92300033569336 12.154999732971191,8.472999572753906 -0.9729999899864197,8.472999572753906 C-14.10099983215332,8.472999572753906 -21.298999786376953,17.648000717163086 -21.298999786376953,-0.20999999344348907 C-21.298999786376953,-18.06800079345703 -15.373000144958496,-32.165000915527344 0,-32.165000915527344 C15.373000144958496,-32.165000915527344 22.15399932861328,-17.792999267578125 22.15399932861328,0.06499999761581421z"/></g><g opacity="1" transform="matrix(1,0,0,1,173.5070037841797,29.256000518798828)"><path fill="rgb(234,172,31)" fill-opacity="1" d=" M22.15399932861328,0.06499999761581421 C22.15399932861328,16.084999084472656 12.154999732971191,5.144000053405762 -0.9729999899864197,5.144000053405762 C-14.10099983215332,5.144000053405762 -20.944000244140625,15.664999961853027 -20.944000244140625,-0.35499998927116394 C-20.944000244140625,-16.375 -15.373000144958496,-29.176000595092773 0,-29.176000595092773 C15.373000144958496,-29.176000595092773 22.15399932861328,-15.954999923706055 22.15399932861328,0.06499999761581421z"/></g><g opacity="1" transform="matrix(1,0,0,1,173.5070037841797,32.44200134277344)"><path fill="rgb(151,72,0)" fill-opacity="1" d=" M21.36400032043457,0.052000001072883606 C19.36199951171875,15.015999794006348 11.371999740600586,8.793000221252441 -0.6990000009536743,8.793000221252441 C-12.770999908447266,8.793000221252441 -18.929000854492188,14.227999687194824 -20.469999313354492,-0.7900000214576721 C-22.281999588012695,-18.447999954223633 -11.840999603271484,-27.465999603271484 0.23100000619888306,-27.465999603271484 C12.302000045776367,-27.465999603271484 23.691999435424805,-17.35099983215332 21.36400032043457,0.052000001072883606z"/></g><g opacity="1" transform="matrix(1,0,0,1,173.5070037841797,20.547000885009766)"><path fill="rgb(99,41,0)" fill-opacity="1" d=" M21.860000610351562,11.899999618530273 C21.753999710083008,13.095000267028809 20.902999877929688,14.135000228881836 20.773000717163086,15.295000076293945 C20.249000549316406,1.8380000591278076 13.479999542236328,-8.972999572753906 0.6790000200271606,-9.72599983215332 C-10.446999549865723,-10.380000114440918 -21.027999877929688,-2.4600000381469727 -20.243999481201172,14.699999809265137 C-20.374000549316406,13.539999961853027 -20.836999893188477,12.302000045776367 -20.94300079345703,11.107000350952148 C-22.535999298095703,-6.793000221252441 -11.83899974822998,-15.571999549865723 0.23100000619888306,-15.571999549865723 C12.300999641418457,-15.571999549865723 23.415000915527344,-5.639999866485596 21.860000610351562,11.899999618530273z"/></g></g><g transform="matrix(0.9986909627914429,0,0,0.9986909627914429,264.2008972167969,377.2356872558594)" opacity="1" style="display: block;"><g opacity="1" transform="matrix(1,0,0,1,0,0)"><path fill="url(#__lottie_element_28)" fill-opacity="1" d=" M77.90499114990234,-31.392532348632812 C77.90499114990234,-31.392532348632812 93.11772918701172,-23.168317794799805 83.6769027709961,-7.183388710021973 C77.53215026855469,3.3986356258392334 70.93147277832031,4.029077053070068 64.24766540527344,16.176509857177734 C52.49382019042969,37.53050994873047 53.99534225463867,54.59336471557617 38.71763229370117,64.76136016845703 C20.164772033691406,76.36146545410156 -66.4957504272461,63.9387092590332 -90.23175048828125,50.518707275390625 C-90.23175048828125,50.518707275390625 -95.04457092285156,31.457569122314453 -71.49256896972656,-7.274430274963379 C-34.33957290649414,-68.37242889404297 -23.683134078979492,-10.621520042419434 8.937865257263184,-8.35752010345459 C41.55886459350586,-6.0935959815979 77.90499114990234,-31.392532348632812 77.90499114990234,-31.392532348632812z"/></g></g><g transform="matrix(1.077210545539856,-0.18140016496181488,0.18140016496181488,1.077210545539856,220.5563201904297,385.2193603515625)" opacity="1" style="display: none;"><g opacity="1" transform="matrix(1,0,0,1,0,0)"><path fill="url(#__lottie_element_35)" fill-opacity="1" d=" M11.92199993133545,-102.0530014038086 C7.584000110626221,-91.89700317382812 17.71500015258789,-48.2859992980957 4.26800012588501,-34.439998626708984 C-1.3229999542236328,-23.635000228881836 -63.04399871826172,5.896999835968018 -39.492000579833984,-32.834999084472656 C-2.3389999866485596,-93.93299865722656 -15.82800006866455,-138.0679931640625 16.576000213623047,-133.68499755859375 C26.131000518798828,-132.39300537109375 17.50200080871582,-115.11699676513672 11.92199993133545,-102.0530014038086z"/></g></g><g transform="matrix(1.0299999713897705,0,0,1.0299999713897705,40.753692626953125,39.914215087890625)" opacity="1" style="display: block;"><g opacity="1" transform="matrix(0.970004677772522,0,0,0.9699984192848206,-0.2252655029296875,-0.30279541015625)"><g opacity="1" transform="matrix(1,0,0,1,215.6439971923828,215.64500427246094)"><path stroke-linecap="butt" stroke-linejoin="miter" fill-opacity="0" stroke-miterlimit="10" stroke="rgb(231,105,0)" stroke-opacity="1" stroke-width="8.259" d=" M194.9969940185547,0 C194.9969940185547,107.69400024414062 107.69300079345703,194.9969940185547 0,194.9969940185547 C-107.69400024414062,194.9969940185547 -194.9969940185547,107.69400024414062 -194.9969940185547,0 C-194.9969940185547,-107.69400024414062 -107.69400024414062,-194.9969940185547 0,-194.9969940185547 C107.69300079345703,-194.9969940185547 194.9969940185547,-107.69400024414062 194.9969940185547,0z"/></g></g></g><g transform="matrix(1.0307365655899048,0,0,1.0307365655899048,157.96493530273438,194.29644775390625)" opacity="1" style="display: block;"><g opacity="1" transform="matrix(1,0,0,1,0,-0.6648483276367188)"><g opacity="1" transform="matrix(1,0,0,1,89.89900207519531,67.28900146484375)"><path fill="rgb(248,199,41)" fill-opacity="1" d=" M16.49673843383789,42.59843826293945 C16.49673843383789,42.59843826293945 19.78799057006836,-3.5929999351501465 16.629276275634766,-24.601999282836914 C15.152069091796875,-34.42300033569336 9.392232894897461,-45.50199890136719 1.342103123664856,-46.36199951171875 C-7.336949825286865,-47.28900146484375 -12.533294677734375,-39.11800003051758 -12.533294677734375,-30.666000366210938 C-12.533294677734375,-22.21500015258789 -12.24828052520752,19.39454460144043 -19.620281219482422,47.9455451965332 C-19.620281219482422,47.9455451965332 16.49673843383789,42.59843826293945 16.49673843383789,42.59843826293945z"/></g><g opacity="1" transform="matrix(1,0,0,1,88.33000183105469,89.10299682617188)"><path fill="rgb(243,172,25)" fill-opacity="1" d=" M16.379390716552734,-5.997215747833252 C15.989391326904297,8.562784194946289 18.06873893737793,20.787439346313477 18.06873893737793,20.787439346313477 C18.06873893737793,20.787439346313477 -18.053279876708984,26.126543045043945 -18.053279876708984,26.126543045043945 C-14.002280235290527,10.416543960571289 -12.278995513916016,-9.710000038146973 -11.498164176940918,-25.450000762939453 C-11.38806438446045,-25.469999313354492 -8.334806442260742,-25.469999313354492 -8.334806442260742,-25.469999313354492 C-8.334806442260742,-25.469999313354492 -12.467280387878418,0.7137694954872131 1.7367196083068848,3.0837695598602295 C10.598719596862793,4.563769340515137 13.819391250610352,-1.558215856552124 16.379390716552734,-5.997215747833252z"/></g><g opacity="1" transform="matrix(1,0,0,1,92.44000244140625,45.95800018310547)"><path fill="rgb(253,220,102)" fill-opacity="1" d=" M15.394546508789062,25.954999923706055 C15.394546508789062,25.93400001525879 15.384546279907227,25.905000686645508 15.384546279907227,25.875 C11.630590438842773,-4.755000114440918 2.7657692432403564,-13.940966606140137 -3.4177258014678955,-14.085000038146973 C-10.84999942779541,-14.258999824523926 -15.358864784240723,13.574999809265137 -15.448965072631836,14.024999618530273 C-14.978466033935547,2.884999990463257 -15.070294380187988,-5.90500020980835 -15.070294380187988,-9.335000038146973 C-15.070294380187988,-17.78499984741211 -9.877949714660645,-25.955299377441406 -1.1938968896865845,-25.03499984741211 C6.846166610717773,-24.174999237060547 12.612168312072754,-13.095033645629883 14.091277122497559,-3.2750000953674316 C15.238424301147461,4.355000019073486 15.455613136291504,15.21500015258789 15.394546508789062,25.954999923706055z"/></g><g opacity="1" transform="matrix(1,0,0,1,89.89900207519531,67.28900146484375)"><path stroke-linecap="round" stroke-linejoin="round" fill-opacity="0" stroke="rgb(231,105,0)" stroke-opacity="1" stroke-width="8" d=" M16.49673843383789,42.59843826293945 C16.49673843383789,42.59843826293945 19.78799057006836,-3.5929999351501465 16.629276275634766,-24.601999282836914 C15.152069091796875,-34.42300033569336 9.392232894897461,-45.50199890136719 1.342103123664856,-46.36199951171875 C-7.336949825286865,-47.28900146484375 -12.533294677734375,-39.11800003051758 -12.533294677734375,-30.666000366210938 C-12.533294677734375,-22.21500015258789 -12.24828052520752,19.39454460144043 -19.620281219482422,47.9455451965332"/></g></g><g opacity="1" transform="matrix(0.9999973177909851,0.002320778090506792,-0.002320778090506792,0.9999973177909851,0.5127029418945312,-0.7363433837890625)"><g opacity="1" transform="matrix(1,0,0,1,129.50599670410156,194.20399475097656)"><path fill="rgb(248,199,41)" fill-opacity="1" d=" M-40.479000091552734,59.810001373291016 C-21.875999450683594,60.612998962402344 -5.388000011444092,45.03099822998047 4.627999782562256,30.74799919128418 C14.644000053405762,16.466999053955078 18.256000518798828,1.8220000267028809 25.479999542236328,-9.013999938964844 C32.70399856567383,-19.850000381469727 48.75699996948242,-32.49599838256836 49.96099853515625,-44.132999420166016 C51.165000915527344,-55.77199935913086 40.80441665649414,-60.66801834106445 27.40741729736328,-55.8270149230957 C15.75041675567627,-51.61601638793945 6.35099983215332,-37.297000885009766 2.2990000247955322,-24.649999618530273 C-1.7519999742507935,-12.003000259399414 -38.314998626708984,-22.06100082397461 -51.16600036621094,-2.796999931335449 C-51.16600036621094,-2.796999931335449 -40.479000091552734,59.810001373291016 -40.479000091552734,59.810001373291016z"/></g><g opacity="1" transform="matrix(1,0,0,1,112.20500183105469,215.052001953125)"><path fill="rgb(243,172,25)" fill-opacity="1" d=" M33.86000061035156,-12.270000457763672 C30.68000030517578,-5.179999828338623 27.190000534057617,2.4110000133514404 21.93000030517578,9.901000022888184 C11.91100025177002,24.18000030517578 -4.578999996185303,39.7599983215332 -23.18000030517578,38.959999084472656 C-23.18000030517578,38.959999084472656 -33.86000061035156,-23.649999618530273 -33.86000061035156,-23.649999618530273 C-23.959999084472656,-38.4900016784668 0.019999999552965164,-35.91899871826172 12.350000381469727,-39.75899887084961 C12.350000381469727,-39.75899887084961 20.93000030517578,-30.40999984741211 20.93000030517578,-30.40999984741211 C20.93000030517578,-30.40999984741211 8.6899995803833,-15.241000175476074 12.140000343322754,-3.7699999809265137 C15.581000328063965,7.709000110626221 24.83099937438965,5.510000228881836 33.810001373291016,-12.178999900817871 C33.83100128173828,-12.208999633789062 33.84000015258789,-12.241000175476074 33.86000061035156,-12.270000457763672z"/></g><g opacity="1" transform="matrix(1,0,0,1,158.39500427246094,162.4029998779297)"><path fill="rgb(253,220,102)" fill-opacity="1" d=" M21.06999969482422,-12.329999923706055 C19.8700008392334,-0.6899999976158142 3.819999933242798,11.949000358581543 -3.4100000858306885,22.788999557495117 C-4.670000076293945,24.690000534057617 -5.829999923706055,26.698999404907227 -6.920000076293945,28.809999465942383 C-2.571000099182129,4.349999904632568 14.213000297546387,-8.161999702453613 9.109999656677246,-16.250999450683594 C3.0439999103546143,-25.86400032043457 -17.027999877929688,-11.331000328063965 -22.280000686645508,-3.0199999809265137 C-17.360000610351562,-12.35099983215332 -10.049583435058594,-20.936016082763672 -1.4805830717086792,-24.026016235351562 C11.920416831970215,-28.86501693725586 22.280000686645508,-23.97100067138672 21.06999969482422,-12.329999923706055z"/></g><g opacity="1" transform="matrix(1,0,0,1,129.50599670410156,194.20399475097656)"><path stroke-linecap="round" stroke-linejoin="round" fill-opacity="0" stroke="rgb(231,105,0)" stroke-opacity="1" stroke-width="8" d=" M-40.479000091552734,59.810001373291016 C-21.875999450683594,60.612998962402344 -5.388000011444092,45.03099822998047 4.627999782562256,30.74799919128418 C14.644000053405762,16.466999053955078 18.256000518798828,1.8220000267028809 25.479999542236328,-9.013999938964844 C32.70399856567383,-19.850000381469727 48.75699996948242,-32.49599838256836 49.96099853515625,-44.132999420166016 C51.165000915527344,-55.77199935913086 40.80441665649414,-60.66801834106445 27.40741729736328,-55.8270149230957 C15.75041675567627,-51.61601638793945 6.35099983215332,-37.297000885009766 2.2990000247955322,-24.649999618530273 C-1.7519999742507935,-12.003000259399414 -38.314998626708984,-22.06100082397461 -51.16600036621094,-2.796999931335449"/></g></g><g opacity="1" transform="matrix(1,0,0,1,0,-0.2991790771484375)"><g opacity="1" transform="matrix(1,0,0,1,103.37300109863281,144.5919952392578)"><path fill="rgb(253,220,102)" fill-opacity="1" d=" M-41.570919036865234,-26.782690048217773 C-41.570919036865234,-26.782690048217773 -29.845033645629883,-35.70800018310547 -9.55603313446045,-42.959999084472656 C5.486966609954834,-48.33700180053711 13.177691459655762,-46.94169998168945 17.601146697998047,-43.94856262207031 C23.49126625061035,-39.96469497680664 36.292999267578125,-15.151000022888184 38.777000427246094,-1.7990000247955322 C41.2599983215332,11.553000450134277 36.766998291015625,28.715999603271484 29.761999130249023,40.05099868774414 C24.641000747680664,48.33599853515625 9.416999816894531,41.67100143432617 11.279999732971191,28.6299991607666"/></g><g opacity="1" transform="matrix(1,0,0,1,103.37300109863281,144.5919952392578)"><path stroke-linecap="round" stroke-linejoin="round" fill-opacity="0" stroke="rgb(231,105,0)" stroke-opacity="1" stroke-width="8" d=" M-41.570919036865234,-26.782690048217773 C-41.570919036865234,-26.782690048217773 -29.845033645629883,-35.70800018310547 -9.55603313446045,-42.959999084472656 C5.486966609954834,-48.33700180053711 13.177691459655762,-46.94169998168945 17.601146697998047,-43.94856262207031 C23.49126625061035,-39.96469497680664 36.292999267578125,-15.151000022888184 38.777000427246094,-1.7990000247955322 C41.2599983215332,11.553000450134277 36.766998291015625,28.715999603271484 29.761999130249023,40.05099868774414 C24.641000747680664,48.33599853515625 9.416999816894531,41.67100143432617 11.279999732971191,28.6299991607666"/></g></g><g opacity="1" transform="matrix(1,0,0,1,77.06800079345703,190.63400268554688)"><path fill="rgb(248,199,41)" fill-opacity="1" d=" M23.232999801635742,-1.5110000371932983 C31.450000762939453,5.883999824523926 41.0099983215332,6.160999774932861 45.930999755859375,0.4869999885559082 C50.85300064086914,-5.185999870300293 57.06800079345703,-25.929000854492188 57.06800079345703,-35.81999969482422 C57.06800079345703,-45.709999084472656 42.03133773803711,-78.34869384765625 29.676342010498047,-82.16657257080078 C19.424530029296875,-85.33160400390625 -11.255653381347656,-77.57499694824219 -22.181652069091797,-68.40499877929688 C-30.825653076171875,-61.14899826049805 -33.257652282714844,-54.67300033569336 -37.040653228759766,-40.73699951171875 C-40.822654724121094,-26.798999786376953 -49.789859771728516,0.7328405976295471 -53.24433135986328,18.515243530273438 C-56.699771881103516,36.29564666748047 -51.485382080078125,71.73779296875 -28.927745819091797,78.45075988769531 C-6.370108604431152,85.16275787353516 16.722822189331055,70.63906860351562 23.81403160095215,57.655067443847656 C30.907209396362305,44.6710319519043 32.970001220703125,25.715999603271484 26.256999969482422,16.238000869750977 C19.54400062561035,6.760000228881836 16.288000106811523,4.614999771118164 14.57699966430664,-2.7929999828338623"/></g><g opacity="1" transform="matrix(1,0,0,1,65.0199966430664,238.57200622558594)"><path fill="rgb(243,172,25)" fill-opacity="1" d=" M38.30400085449219,-31.698999404907227 C45.01499938964844,-22.219999313354492 42.95534133911133,-3.269866943359375 35.86106491088867,9.720099449157715 C28.76788902282715,22.699132919311523 5.674957752227783,37.22762680053711 -16.885746002197266,30.5087947845459 C-39.434417724609375,23.79879379272461 -44.64683532714844,-11.645421028137207 -41.197364807128906,-29.426790237426758 C-41.197364807128906,-29.426790237426758 -33.887847900390625,6.26815938949585 -6.687517166137695,9.298760414123535 C16.918760299682617,11.918760299682617 44.29399871826172,-8.649999618530273 34.064998626708984,-37.40999984741211 C35.29399871826172,-35.810001373291016 36.70399856567383,-33.970001220703125 38.30400085449219,-31.698999404907227z"/></g><g opacity="1" transform="matrix(1,0,0,1,76.06800079345703,190.13400268554688)"><path stroke-linecap="round" stroke-linejoin="round" fill-opacity="0" stroke="rgb(231,105,0)" stroke-opacity="1" stroke-width="8" d=" M24.232999801635742,-1.0110000371932983 C32.45000076293945,6.383999824523926 40.0099983215332,5.660999774932861 44.930999755859375,-0.013000000268220901 C49.85300064086914,-5.685999870300293 56.06800079345703,-26.429000854492188 56.06800079345703,-36.31999969482422 C56.06800079345703,-46.209999084472656 45.05424118041992,-78.87259674072266 32.67634201049805,-82.66657257080078 C22.38327407836914,-85.81231689453125 -9.468652725219727,-77.82499694824219 -21.181652069091797,-67.90499877929688 C-29.79365348815918,-60.61000061035156 -32.257652282714844,-54.17300033569336 -36.040653228759766,-40.23699951171875 C-39.822654724121094,-26.298999786376953 -48.789859771728516,1.232840657234192 -52.24433135986328,19.015243530273438 C-55.699771881103516,36.79564666748047 -50.485382080078125,72.23779296875 -27.927745819091797,78.95075988769531 C-5.370108604431152,85.66275787353516 17.722822189331055,71.13906860351562 24.81403160095215,58.155067443847656 C31.907209396362305,45.1710319519043 33.970001220703125,26.215999603271484 27.256999969482422,16.738000869750977 C20.54400062561035,7.260000228881836 17.288000106811523,5.114999771118164 15.57699966430664,-2.2929999828338623"/></g><g opacity="1" transform="matrix(0.999991774559021,0.004061353858560324,-0.004061353858560324,0.999991774559021,0.6028900146484375,0.12646484375)"><g opacity="1" transform="matrix(1,0,0,1,89.90699768066406,158.093994140625)"><path fill="rgb(248,199,41)" fill-opacity="1" d=" M-4.752999782562256,2.062999963760376 C-4.752999782562256,2.062999963760376 -1.3109999895095825,-1.1319999694824219 0.6549999713897705,-1.1319999694824219 C2.621000051498413,-1.1319999694824219 3.3580000400543213,1.3259999752044678 2.130000114440918,4.765999794006348 C0.9010000228881836,8.206999778747559 -3.9679999351501465,26.39299964904785 5.224999904632568,34.50299835205078 C14.418000221252441,42.61399841308594 26.21299934387207,30.816999435424805 29.89900016784668,16.68600082397461 C33.58599853515625,2.553999900817871 33.58599853515625,-1.8509999513626099 32.356998443603516,-6.520999908447266 C31.128999710083008,-11.1899995803833 21.086999893188477,-38.41999816894531 9.781999588012695,-40.516998291015625 C-1.5230000019073486,-42.6150016784668 -31.823999404907227,-27.964000701904297 -33.58700180053711,-22.09000015258789 C-33.58700180053711,-22.09000015258789 -4.752999782562256,2.062999963760376 -4.752999782562256,2.062999963760376z"/></g><g opacity="1" transform="matrix(1,0,0,1,90.82499694824219,156.7169952392578)"><path fill="rgb(253,220,102)" fill-opacity="1" d=" M28.979999542236328,18.06599998474121 C25.760000228881836,30.416000366210938 16.34000015258789,40.986000061035156 7.879000186920166,38.0359992980957 C7.879000186920166,38.0359992980957 7.900000095367432,38.0359992980957 7.900000095367432,38.0359992980957 C18.030000686645508,36.435001373291016 24.100000381469727,7.895999908447266 23.09000015258789,-0.4050000011920929 C22.09000015258789,-8.704999923706055 13.501999855041504,-28.360000610351562 6.290999889373779,-30.464000701904297 C-5.435999870300293,-33.88600158691406 -31.809999465942383,-20.454999923706055 -32.66899871826172,-20.19499969482422 C-25.639999389648438,-26.905000686645508 -1.059999942779541,-40.98500061035156 8.859999656677246,-39.14400100708008 C20.16900062561035,-37.04399871826172 30.209999084472656,-9.8149995803833 31.440000534057617,-5.144000053405762 C32.66899871826172,-0.4740000069141388 32.66899871826172,3.934999942779541 28.979999542236328,18.06599998474121z"/></g><g opacity="1" transform="matrix(1,0,0,1,89.90699768066406,158.093994140625)"><path stroke-linecap="round" stroke-linejoin="round" fill-opacity="0" stroke="rgb(231,105,0)" stroke-opacity="1" stroke-width="8" d=" M-4.752999782562256,2.062999963760376 C-4.752999782562256,2.062999963760376 -1.3109999895095825,-1.1319999694824219 0.6549999713897705,-1.1319999694824219 C2.621000051498413,-1.1319999694824219 3.3580000400543213,1.3259999752044678 2.130000114440918,4.765999794006348 C0.9010000228881836,8.206999778747559 -3.9679999351501465,26.39299964904785 5.224999904632568,34.50299835205078 C14.418000221252441,42.61399841308594 26.21299934387207,30.816999435424805 29.89900016784668,16.68600082397461 C33.58599853515625,2.553999900817871 33.58599853515625,-1.8509999513626099 32.356998443603516,-6.520999908447266 C31.128999710083008,-11.1899995803833 21.086999893188477,-38.41999816894531 9.781999588012695,-40.516998291015625 C-1.5230000019073486,-42.6150016784668 -28.87700080871582,-29.434999465942383 -33.58700180053711,-22.09000015258789"/></g></g></g></g></svg>