
      <svg               className="techstack-logo"

              viewBox="0 0 130 130" xmlns="http://www.w3.org/2000/svg">
        <circle cx="58" cy="26" r="2" fill="inherit"/><circle cx="62" cy="26" r="2" fill="inherit"/><circle cx="66" cy="26" r="2" fill="inherit"/><circle cx="70" cy="26" r="2" fill="inherit"/><circle cx="46" cy="30" r="2" fill="inherit"/><circle cx="50" cy="30" r="2" fill="inherit"/><circle cx="54" cy="30" r="2" fill="inherit"/><circle cx="58" cy="30" r="2" fill="inherit"/><circle cx="62" cy="30" r="2" fill="inherit"/><circle cx="66" cy="30" r="2" fill="inherit"/><circle cx="70" cy="30" r="2" fill="inherit"/><circle cx="74" cy="30" r="2" fill="inherit"/><circle cx="78" cy="30" r="2" fill="inherit"/><circle cx="42" cy="34" r="2" fill="inherit"/><circle cx="46" cy="34" r="2" fill="inherit"/><circle cx="50" cy="34" r="2" fill="inherit"/><circle cx="54" cy="34" r="2" fill="inherit"/><circle cx="58" cy="34" r="2" fill="inherit"/><circle cx="62" cy="34" r="2" fill="inherit"/><circle cx="66" cy="34" r="2" fill="inherit"/><circle cx="70" cy="34" r="2" fill="inherit"/><circle cx="74" cy="34" r="2" fill="inherit"/><circle cx="78" cy="34" r="2" fill="inherit"/><circle cx="82" cy="34" r="2" fill="inherit"/><circle cx="86" cy="34" r="2" fill="inherit"/><circle cx="38" cy="38" r="2" fill="inherit"/><circle cx="42" cy="38" r="2" fill="inherit"/><circle cx="46" cy="38" r="2" fill="inherit"/><circle cx="50" cy="38" r="2" fill="inherit"/><circle cx="54" cy="38" r="2" fill="inherit"/><circle cx="58" cy="38" r="2" fill="inherit"/><circle cx="62" cy="38" r="2" fill="inherit"/><circle cx="66" cy="38" r="2" fill="inherit"/><circle cx="70" cy="38" r="2" fill="inherit"/><circle cx="74" cy="38" r="2" fill="inherit"/><circle cx="78" cy="38" r="2" fill="inherit"/><circle cx="82" cy="38" r="2" fill="inherit"/><circle cx="86" cy="38" r="2" fill="inherit"/><circle cx="90" cy="38" r="2" fill="inherit"/><circle cx="38" cy="42" r="2" fill="inherit"/><circle cx="58" cy="42" r="2" fill="inherit"/><circle cx="62" cy="42" r="2" fill="inherit"/><circle cx="66" cy="42" r="2" fill="inherit"/><circle cx="70" cy="42" r="2" fill="inherit"/><circle cx="74" cy="42" r="2" fill="inherit"/><circle cx="78" cy="42" r="2" fill="inherit"/><circle cx="82" cy="42" r="2" fill="inherit"/><circle cx="86" cy="42" r="2" fill="inherit"/><circle cx="90" cy="42" r="2" fill="inherit"/><circle cx="94" cy="42" r="2" fill="inherit"/><circle cx="34" cy="46" r="2" fill="inherit"/><circle cx="66" cy="46" r="2" fill="inherit"/><circle cx="70" cy="46" r="2" fill="inherit"/><circle cx="74" cy="46" r="2" fill="inherit"/><circle cx="78" cy="46" r="2" fill="inherit"/><circle cx="82" cy="46" r="2" fill="inherit"/><circle cx="86" cy="46" r="2" fill="inherit"/><circle cx="90" cy="46" r="2" fill="inherit"/><circle cx="94" cy="46" r="2" fill="inherit"/><circle cx="98" cy="46" r="2" fill="inherit"/><circle cx="122" cy="46" r="2" fill="inherit"/><circle cx="70" cy="50" r="2" fill="inherit"/><circle cx="74" cy="50" r="2" fill="inherit"/><circle cx="78" cy="50" r="2" fill="inherit"/><circle cx="82" cy="50" r="2" fill="inherit"/><circle cx="86" cy="50" r="2" fill="inherit"/><circle cx="90" cy="50" r="2" fill="inherit"/><circle cx="94" cy="50" r="2" fill="inherit"/><circle cx="98" cy="50" r="2" fill="inherit"/><circle cx="102" cy="50" r="2" fill="inherit"/><circle cx="106" cy="50" r="2" fill="inherit"/><circle cx="110" cy="50" r="2" fill="inherit"/><circle cx="114" cy="50" r="2" fill="inherit"/><circle cx="118" cy="50" r="2" fill="inherit"/><circle cx="122" cy="50" r="2" fill="inherit"/><circle cx="74" cy="54" r="2" fill="inherit"/><circle cx="78" cy="54" r="2" fill="inherit"/><circle cx="82" cy="54" r="2" fill="inherit"/><circle cx="86" cy="54" r="2" fill="inherit"/><circle cx="90" cy="54" r="2" fill="inherit"/><circle cx="94" cy="54" r="2" fill="inherit"/><circle cx="98" cy="54" r="2" fill="inherit"/><circle cx="102" cy="54" r="2" fill="inherit"/><circle cx="106" cy="54" r="2" fill="inherit"/><circle cx="110" cy="54" r="2" fill="inherit"/><circle cx="114" cy="54" r="2" fill="inherit"/><circle cx="118" cy="54" r="2" fill="inherit"/><circle cx="78" cy="58" r="2" fill="inherit"/><circle cx="82" cy="58" r="2" fill="inherit"/><circle cx="86" cy="58" r="2" fill="inherit"/><circle cx="90" cy="58" r="2" fill="inherit"/><circle cx="94" cy="58" r="2" fill="inherit"/><circle cx="98" cy="58" r="2" fill="inherit"/><circle cx="102" cy="58" r="2" fill="inherit"/><circle cx="106" cy="58" r="2" fill="inherit"/><circle cx="110" cy="58" r="2" fill="inherit"/><circle cx="114" cy="58" r="2" fill="inherit"/><circle cx="86" cy="62" r="2" fill="inherit"/><circle cx="90" cy="62" r="2" fill="inherit"/><circle cx="94" cy="62" r="2" fill="inherit"/><circle cx="98" cy="62" r="2" fill="inherit"/><circle cx="102" cy="62" r="2" fill="inherit"/><circle cx="22" cy="66" r="2" fill="inherit"/><circle cx="26" cy="66" r="2" fill="inherit"/><circle cx="30" cy="66" r="2" fill="inherit"/><circle cx="34" cy="66" r="2" fill="inherit"/><circle cx="38" cy="66" r="2" fill="inherit"/><circle cx="42" cy="66" r="2" fill="inherit"/><circle cx="14" cy="70" r="2" fill="inherit"/><circle cx="18" cy="70" r="2" fill="inherit"/><circle cx="22" cy="70" r="2" fill="inherit"/><circle cx="26" cy="70" r="2" fill="inherit"/><circle cx="30" cy="70" r="2" fill="inherit"/><circle cx="34" cy="70" r="2" fill="inherit"/><circle cx="38" cy="70" r="2" fill="inherit"/><circle cx="42" cy="70" r="2" fill="inherit"/><circle cx="46" cy="70" r="2" fill="inherit"/><circle cx="50" cy="70" r="2" fill="inherit"/><circle cx="10" cy="74" r="2" fill="inherit"/><circle cx="14" cy="74" r="2" fill="inherit"/><circle cx="18" cy="74" r="2" fill="inherit"/><circle cx="22" cy="74" r="2" fill="inherit"/><circle cx="26" cy="74" r="2" fill="inherit"/><circle cx="30" cy="74" r="2" fill="inherit"/><circle cx="34" cy="74" r="2" fill="inherit"/><circle cx="38" cy="74" r="2" fill="inherit"/><circle cx="42" cy="74" r="2" fill="inherit"/><circle cx="46" cy="74" r="2" fill="inherit"/><circle cx="50" cy="74" r="2" fill="inherit"/><circle cx="54" cy="74" r="2" fill="inherit"/><circle cx="6" cy="78" r="2" fill="inherit"/><circle cx="10" cy="78" r="2" fill="inherit"/><circle cx="14" cy="78" r="2" fill="inherit"/><circle cx="18" cy="78" r="2" fill="inherit"/><circle cx="22" cy="78" r="2" fill="inherit"/><circle cx="26" cy="78" r="2" fill="inherit"/><circle cx="30" cy="78" r="2" fill="inherit"/><circle cx="34" cy="78" r="2" fill="inherit"/><circle cx="38" cy="78" r="2" fill="inherit"/><circle cx="42" cy="78" r="2" fill="inherit"/><circle cx="46" cy="78" r="2" fill="inherit"/><circle cx="50" cy="78" r="2" fill="inherit"/><circle cx="54" cy="78" r="2" fill="inherit"/><circle cx="58" cy="78" r="2" fill="inherit"/><circle cx="6" cy="82" r="2" fill="inherit"/><circle cx="30" cy="82" r="2" fill="inherit"/><circle cx="34" cy="82" r="2" fill="inherit"/><circle cx="38" cy="82" r="2" fill="inherit"/><circle cx="42" cy="82" r="2" fill="inherit"/><circle cx="46" cy="82" r="2" fill="inherit"/><circle cx="50" cy="82" r="2" fill="inherit"/><circle cx="54" cy="82" r="2" fill="inherit"/><circle cx="58" cy="82" r="2" fill="inherit"/><circle cx="62" cy="82" r="2" fill="inherit"/><circle cx="34" cy="86" r="2" fill="inherit"/><circle cx="38" cy="86" r="2" fill="inherit"/><circle cx="42" cy="86" r="2" fill="inherit"/><circle cx="46" cy="86" r="2" fill="inherit"/><circle cx="50" cy="86" r="2" fill="inherit"/><circle cx="54" cy="86" r="2" fill="inherit"/><circle cx="58" cy="86" r="2" fill="inherit"/><circle cx="62" cy="86" r="2" fill="inherit"/><circle cx="66" cy="86" r="2" fill="inherit"/><circle cx="70" cy="86" r="2" fill="inherit"/><circle cx="86" cy="86" r="2" fill="inherit"/><circle cx="90" cy="86" r="2" fill="inherit"/><circle cx="38" cy="90" r="2" fill="inherit"/><circle cx="42" cy="90" r="2" fill="inherit"/><circle cx="46" cy="90" r="2" fill="inherit"/><circle cx="50" cy="90" r="2" fill="inherit"/><circle cx="54" cy="90" r="2" fill="inherit"/><circle cx="58" cy="90" r="2" fill="inherit"/><circle cx="62" cy="90" r="2" fill="inherit"/><circle cx="66" cy="90" r="2" fill="inherit"/><circle cx="70" cy="90" r="2" fill="inherit"/><circle cx="74" cy="90" r="2" fill="inherit"/><circle cx="78" cy="90" r="2" fill="inherit"/><circle cx="82" cy="90" r="2" fill="inherit"/><circle cx="86" cy="90" r="2" fill="inherit"/><circle cx="42" cy="94" r="2" fill="inherit"/><circle cx="46" cy="94" r="2" fill="inherit"/><circle cx="50" cy="94" r="2" fill="inherit"/><circle cx="54" cy="94" r="2" fill="inherit"/><circle cx="58" cy="94" r="2" fill="inherit"/><circle cx="62" cy="94" r="2" fill="inherit"/><circle cx="66" cy="94" r="2" fill="inherit"/><circle cx="70" cy="94" r="2" fill="inherit"/><circle cx="74" cy="94" r="2" fill="inherit"/><circle cx="78" cy="94" r="2" fill="inherit"/><circle cx="82" cy="94" r="2" fill="inherit"/><circle cx="50" cy="98" r="2" fill="inherit"/><circle cx="54" cy="98" r="2" fill="inherit"/><circle cx="58" cy="98" r="2" fill="inherit"/><circle cx="62" cy="98" r="2" fill="inherit"/><circle cx="66" cy="98" r="2" fill="inherit"/><circle cx="70" cy="98" r="2" fill="inherit"/><circle cx="74" cy="98" r="2" fill="inherit"/><circle cx="78" cy="98" r="2" fill="inherit"/>
      </svg>
    